# xmcd CD database file
#
# Track frame offsets:
#	150
#	12200
#	29822
#	51250
#	71710
#	90612
#	99100
#	115800
#	136125
#	151397
#	163137
#	176675
#	191250
#	205835
#	220997
#	244022
#
# Disc length: 3520 seconds
#
# Revision: 0
# Processed by: cddbd v1.5PL3 Copyright (c) Steve Scherf et al.
# Submitted via: CDex 1.50beta9
#
DISCID=da0dbe10
DTITLE=オムニバス - 所ジョージ発運転時好感音楽集
DYEAR=2003
DGENRE=Pop
TTITLE0=東京行進曲
TTITLE1=完全燃焼のサツマイモ
TTITLE2=雨あがりの夜空に
TTITLE3=バーニング
TTITLE4=熱視線
TTITLE5=「傷だらけの天使」のテーマ
TTITLE6=路傍の花
TTITLE7=昭和枯れすすき
TTITLE8=雨の御堂筋
TTITLE9=ショボクレ人生
TTITLE10=キモちE
TTITLE11=レモンティー
TTITLE12=沖縄ベイ・ブルース
TTITLE13=SHE BELONGS TO HIM〜彼女は彼のもの〜
TTITLE14=東京BIG CITY
TTITLE15=名月赤城山
EXTD=YEAR: 2003
EXTT0=
EXTT1=
EXTT2=
EXTT3=
EXTT4=
EXTT5=
EXTT6=
EXTT7=
EXTT8=
EXTT9=
EXTT10=
EXTT11=
EXTT12=
EXTT13=
EXTT14=
EXTT15=
PLAYORDER=
